<svg id="Layer_1" data-name="Layer 1" xmlns="http://www.w3.org/2000/svg" viewBox="0 0 102.76 105.01">
  <path d="m69.34,97.72l-1.8-1.31c-.94-1.61-1.41-9.53-1.41-23.77v-7.22c0-2.38.16-4.2.47-5.47.57-2.38,3.62-7.85,9.13-16.41,9.79-15.17,18.79-27.98,27.02-38.43v-2.55l-.79-.73h-11.4c-1.61,2.82-2.89,5.04-3.82,6.64l-8.67,14.51c-8.64,13.96-14.5,23.24-17.57,27.86l-10.23-19.11c-7.45-13.96-13.38-22.95-17.8-26.98-2.14-1.95-4.55-3.53-7.26-4.74C21.63.97,13.48,2.62.77,4.96l-.77.8v4.08l.86.8c3.07,0,5.02.15,5.85.47.84.31,2.45,1.62,4.85,3.9,4.95,4.71,11.58,13.66,19.91,26.83,8.17,12.93,12.26,20.32,12.26,22.17v8.6c0,14.24-.47,22.16-1.4,23.77l-1.8,1.31c-1.3.34-4.5.66-9.6.95l-.78.73v4.96l.7.66c4.89-.3,12.91-.44,24.05-.44s18.9.15,24.05.44l.78-.74v-4.89l-.78-.73c-5.1-.29-8.3-.61-9.61-.95" style="fill: #a7aaad;"/>
</svg>
